<?xml version="1.0" standalone="no"?>
<!DOCTYPE svg PUBLIC "-//W3C//DTD SVG 20010904//EN"
 "http://www.w3.org/TR/2001/REC-SVG-20010904/DTD/svg10.dtd">
<svg version="1.0" xmlns="http://www.w3.org/2000/svg"
 width="300.000000pt" height="243.000000pt" viewBox="0 0 300.000000 243.000000"
 preserveAspectRatio="xMidYMid meet">
<metadata>
Created by potrace 1.10, written by Peter Selinger 2001-2011
</metadata>
<g transform="translate(0.000000,243.000000) scale(0.100000,-0.100000)"
fill="#000000" stroke="none">
<path d="M1403 1991 c-116 -53 -137 -232 -38 -320 40 -35 86 -46 161 -38 53 5
54 5 54 -21 0 -15 7 -51 14 -80 8 -28 11 -50 7 -47 -4 2 -14 30 -21 62 -7 32
-15 52 -17 45 -3 -6 -9 -10 -14 -6 -12 7 -11 -4 6 -62 8 -27 17 -67 20 -89 3
-22 13 -66 21 -98 7 -32 14 -67 14 -77 0 -10 7 -21 16 -24 11 -4 15 -2 11 7
-16 41 -39 137 -35 148 2 7 15 -23 27 -67 13 -43 26 -74 28 -67 2 7 -10 55
-27 109 -17 53 -28 99 -26 102 3 3 8 -4 11 -14 4 -10 12 -33 19 -49 8 -17 17
-45 20 -62 4 -18 12 -35 17 -38 12 -8 11 7 -2 42 -6 15 -26 90 -45 167 l-35
139 24 26 c71 76 72 190 4 268 -56 64 -134 80 -214 44z m167 -22 c50 -28 80
-83 80 -147 0 -28 -3 -58 -7 -67 -5 -15 -7 -15 -18 4 l-11 22 -20 -22 c-18
-21 -18 -22 0 -16 18 7 18 6 1 -20 l-18 -28 22 19 c36 32 33 12 -3 -23 -37
-36 -94 -49 -161 -37 -80 15 -141 124 -116 207 7 23 14 39 17 37 2 -2 -1 -19
-6 -38 -13 -45 2 -106 35 -140 30 -31 102 -54 140 -44 26 6 34 23 13 25 -7 0
2 7 21 15 18 8 31 17 28 21 -8 8 -78 -17 -72 -26 6 -11 -64 3 -91 17 -11 6
-27 19 -35 28 -13 16 -12 17 5 11 16 -6 17 -5 6 8 -7 8 -19 15 -26 15 -8 0
-11 6 -7 15 5 14 8 14 24 -1 11 -10 19 -12 19 -6 0 6 -9 16 -20 22 -11 6 -20
20 -20 31 0 35 40 116 63 127 38 18 116 14 157 -9z"/>
<path d="M1550 1957 c0 -8 5 -28 11 -44 7 -19 12 -24 18 -14 6 10 10 9 14 -3
4 -9 3 -16 -1 -16 -5 0 -18 -20 -30 -45 l-22 -45 24 15 c19 13 25 13 29 3 4
-8 6 -7 6 5 1 9 -3 17 -8 17 -5 0 -7 9 -4 21 6 22 18 15 26 -16 3 -12 5 -5 6
16 1 27 -7 47 -30 75 -40 51 -39 50 -39 31z"/>
<path d="M653 1710 c-69 -41 -88 -147 -40 -219 23 -35 78 -71 107 -71 10 0 12
-32 8 -136 -3 -78 -2 -130 3 -123 5 8 9 68 9 135 l0 121 41 12 c23 7 42 11 42
9 61 -126 134 -236 210 -314 71 -72 97 -79 144 -40 29 25 89 123 80 132 -3 3
-15 -15 -27 -40 -28 -59 -72 -106 -99 -106 -26 0 -109 75 -161 145 -21 28 -61
93 -90 144 l-53 92 22 38 c43 78 18 176 -55 218 -48 28 -99 29 -141 3z m136
-19 c44 -31 64 -68 64 -113 0 -104 -88 -167 -171 -124 -52 27 -75 61 -78 118
-3 49 -2 50 5 13 10 -55 27 -83 64 -105 36 -23 77 -26 77 -7 0 14 39 41 48 33
3 -3 0 -6 -6 -6 -7 0 -12 -7 -12 -15 0 -12 3 -13 19 -3 25 15 41 50 41 88 0
35 -20 43 -75 29 -22 -6 -56 -15 -75 -19 -27 -7 -22 -8 25 -4 112 11 110 11
113 -15 5 -31 -12 -40 -78 -42 -30 -1 -45 -4 -32 -6 30 -6 29 -33 -2 -33 -32
0 -63 29 -44 41 9 6 10 11 2 17 -16 11 -44 72 -44 97 0 29 35 73 63 78 32 7
69 -1 96 -22z"/>
<path d="M2169 1708 c-74 -42 -103 -154 -59 -226 l21 -34 -42 -76 c-93 -172
-184 -283 -244 -298 -38 -9 -69 24 -121 130 -24 49 -44 83 -44 74 0 -31 81
-177 109 -198 49 -34 76 -26 155 49 51 47 46 32 -8 -27 -37 -40 -76 -62 -110
-62 -31 0 -99 75 -122 136 -9 24 -21 44 -25 44 -14 0 -11 -10 25 -74 38 -67
78 -110 114 -121 68 -20 211 133 312 335 39 79 33 72 63 65 l25 -7 4 -133 c2
-74 8 -139 13 -144 7 -7 8 14 3 67 -3 42 -7 107 -7 143 l-1 67 32 6 c18 3 47
23 69 46 121 128 -13 325 -162 238z m139 -16 c48 -32 69 -125 37 -168 -9 -12
-14 -14 -15 -6 0 7 -7 20 -15 28 -13 13 -19 12 -50 -12 -19 -14 -35 -28 -35
-29 0 -7 41 8 46 16 10 17 34 9 34 -10 0 -27 -76 -43 -125 -27 -19 7 -32 15
-29 18 3 4 1 15 -5 25 -8 14 -11 15 -11 3 -1 -8 -6 -4 -11 9 -11 27 -3 43 11
21 8 -12 10 -10 10 8 0 19 -4 22 -20 17 -29 -9 -25 8 14 70 22 33 43 55 58 58
32 6 78 -3 106 -21z m-76 -232 c50 -1 51 -2 29 -14 -31 -17 -87 -5 -115 25
l-21 22 27 -16 c16 -10 49 -17 80 -17z"/>
<path d="M2308 1616 c-14 -29 -15 -34 -3 -29 11 3 15 -2 16 -18 1 -20 3 -19
11 9 7 20 8 40 2 53 -9 19 -11 18 -26 -15z"/>
<path d="M1345 1523 c-15 -65 -40 -156 -56 -202 -16 -47 -27 -87 -24 -89 12
-12 87 243 109 371 14 76 -2 33 -29 -80z"/>
<path d="M1386 1545 c-55 -248 -151 -462 -225 -499 -65 -34 -161 58 -303 291
-28 46 -53 81 -56 79 -7 -8 79 -152 144 -239 71 -96 143 -157 185 -157 83 0
203 230 263 503 10 43 16 83 13 90 -2 6 -12 -24 -21 -68z"/>
<path d="M1422 1554 c-16 -86 -62 -256 -74 -269 -11 -12 -10 -38 1 -31 22 14
99 326 89 358 -2 6 -10 -20 -16 -58z"/>
<path d="M1524 1523 c8 -15 -7 -24 -44 -25 -17 -1 -30 -5 -30 -9 0 -14 40 -30
59 -24 23 7 35 46 19 60 -8 7 -9 6 -4 -2z"/>
<path d="M2594 1506 c-83 -36 -118 -151 -73 -241 13 -25 26 -48 30 -51 4 -2
14 11 23 30 17 37 43 40 68 8 8 -10 9 -13 1 -9 -7 4 -21 -11 -37 -39 -29 -51
-29 -53 3 -59 13 -2 21 1 21 10 0 27 32 95 45 95 8 0 -9 -51 -46 -140 -51
-122 -90 -238 -183 -538 -18 -59 -20 -74 -9 -83 18 -16 16 -48 -3 -56 -8 -3
-75 9 -147 28 -79 19 -156 33 -192 32 -42 0 -54 3 -40 9 13 5 5 7 -25 3 -27
-3 -40 -2 -32 3 34 22 -336 46 -608 39 -237 -6 -437 -25 -405 -39 13 -5 -1 -6
-35 -3 -42 3 -49 2 -30 -5 19 -7 13 -8 -25 -4 -38 4 -46 2 -35 -6 11 -9 4 -10
-30 -6 -34 5 -40 3 -25 -4 16 -8 11 -9 -18 -4 -29 4 -37 2 -31 -7 5 -9 1 -10
-16 -6 -13 3 -62 -3 -108 -15 -88 -22 -101 -19 -102 23 0 39 146 97 264 104
33 2 95 11 136 19 172 34 412 49 660 40 129 -4 269 -7 310 -7 56 0 68 -2 45
-8 -26 -7 -25 -8 12 -5 23 2 43 1 45 -4 2 -4 26 -10 53 -13 37 -4 43 -4 25 3
-21 8 -19 9 11 5 l37 -5 16 92 c9 51 21 113 26 138 5 25 14 79 20 120 7 41 17
85 23 97 12 26 1 45 -13 23 -18 -28 -23 1 -7 37 13 30 16 65 13 166 -2 70 -5
130 -9 133 -3 3 -24 -27 -48 -68 -103 -178 -201 -294 -281 -331 -34 -16 -40
-16 -68 -2 -38 19 -98 95 -129 163 -14 29 -28 52 -33 52 -12 0 -11 -4 17 -57
54 -101 109 -173 138 -180 15 -3 30 -9 32 -13 11 -18 88 27 162 95 43 40 82
71 86 68 4 -2 5 -21 2 -41 -4 -30 -4 -33 4 -14 6 12 16 22 23 22 9 0 9 3 1 11
-7 7 -8 21 -3 40 5 16 8 30 8 32 -5 14 17 47 32 47 10 0 22 5 25 10 3 6 -4 10
-15 10 -19 0 -21 4 -15 28 9 38 22 49 42 36 26 -17 23 -77 -4 -89 -31 -13 -41
-62 -16 -80 10 -7 15 -17 11 -21 -4 -4 -14 -1 -23 6 -9 8 -15 8 -15 2 0 -6 9
-14 21 -17 28 -9 22 -49 -8 -53 -16 -2 -23 -10 -23 -25 0 -12 4 -17 8 -12 4 6
16 11 27 10 17 0 20 -7 19 -45 0 -45 -37 -269 -52 -325 -11 -38 -43 -41 -52
-5 -6 23 -7 22 -14 -12 -5 -29 -12 -38 -26 -38 -15 0 -20 7 -20 28 0 15 -4 22
-8 16 -8 -12 -292 -16 -292 -4 0 4 -33 8 -72 9 -40 0 -88 3 -106 4 -18 2 -54
1 -80 -4 -26 -4 -48 -4 -49 0 -2 3 -46 5 -98 3 -61 -2 -93 -7 -89 -13 4 -7
-10 -8 -41 -3 -38 5 -46 4 -40 -6 6 -10 -5 -12 -56 -7 -44 5 -58 3 -44 -3 15
-7 5 -9 -35 -5 -41 3 -49 2 -30 -5 19 -7 12 -8 -30 -5 -39 3 -48 2 -30 -4 23
-8 23 -9 4 -10 -12 -1 -36 -4 -54 -8 -22 -4 -31 -3 -27 5 4 5 2 21 -3 34 -10
21 -10 21 -5 -6 5 -23 3 -27 -9 -23 -9 4 -16 2 -16 -3 0 -5 8 -11 17 -13 14
-4 13 -5 -4 -6 -16 -1 -24 7 -32 32 -10 33 -35 136 -46 195 -4 18 -10 30 -15
27 -4 -3 -6 14 -3 37 7 61 11 71 29 64 10 -4 13 -2 8 6 -9 14 -9 63 2 158 l8
75 12 -73 c18 -103 56 -264 61 -258 5 5 -23 167 -37 212 -6 17 -10 46 -10 65
0 19 -4 49 -9 67 -6 20 -6 32 0 32 6 0 21 12 36 26 14 14 26 24 27 22 92 -159
228 -288 302 -288 26 0 41 10 77 50 47 53 135 210 117 210 -6 0 -19 -20 -30
-45 -25 -59 -94 -160 -122 -179 -74 -52 -185 34 -331 254 -77 118 -82 124 -73
93 5 -15 3 -23 -4 -23 -7 0 -10 13 -8 32 2 18 -2 33 -9 35 -10 4 -13 -24 -13
-119 -1 -191 -26 -333 -68 -380 -40 -46 -127 1 -213 114 -31 40 -61 84 -68 96
-7 13 -15 21 -18 19 -2 -3 16 -36 40 -74 48 -72 73 -144 127 -363 17 -69 34
-134 37 -145 8 -30 -10 -8 -24 28 l-13 32 7 -35 c9 -51 9 -55 0 -60 -5 -3 -31
69 -59 160 -27 91 -73 228 -103 305 -35 89 -50 142 -43 146 7 4 7 9 -1 13 -6
4 -11 1 -12 -6 -1 -12 -47 78 -48 95 -1 4 7 7 17 7 19 0 49 -53 32 -58 -5 -2
-10 -8 -10 -14 0 -6 6 -8 14 -5 7 3 19 0 25 -6 18 -18 13 -3 -16 49 -36 65
-50 79 -66 65 -28 -22 -97 68 -97 127 0 46 46 92 90 92 46 0 90 -43 96 -91 2
-19 6 -52 10 -73 5 -25 4 -37 -3 -33 -5 3 -18 -3 -27 -15 -15 -17 -16 -20 -3
-15 12 5 25 -11 52 -61 19 -37 31 -68 26 -70 -12 -4 -3 -32 10 -32 4 0 5 7 2
17 -4 10 -2 14 5 9 24 -15 22 18 -7 79 -25 53 -31 78 -31 134 0 81 -24 125
-84 155 -33 16 -43 17 -77 7 -100 -30 -106 -184 -9 -239 24 -14 41 -44 89
-157 108 -254 211 -577 192 -607 -26 -41 -7 -88 36 -88 20 0 23 -5 23 -39 0
-22 3 -46 6 -54 3 -9 -8 -22 -31 -36 -34 -20 -36 -23 -33 -67 4 -57 26 -76
113 -99 188 -48 453 -69 890 -68 357 0 545 13 739 49 95 18 173 49 186 75 24
45 7 94 -43 124 -14 8 -16 20 -11 62 6 46 9 52 36 57 36 7 46 32 26 66 -15 26
-13 36 32 186 100 330 193 560 245 606 123 107 7 298 -141 234z m35 -76 c-13
-38 -29 -70 -36 -70 -17 0 -17 -16 1 -23 8 -3 20 7 30 26 45 84 64 112 76 109
11 -3 11 0 0 12 -20 25 4 18 29 -8 12 -13 24 -40 28 -60 5 -34 4 -36 -20 -36
-14 0 -32 -6 -39 -14 -8 -7 -31 -22 -52 -33 -31 -16 -35 -21 -22 -26 11 -4 15
-3 10 4 -3 6 3 5 14 -2 26 -16 64 1 81 37 6 13 15 24 21 24 14 0 13 -5 -10
-50 -22 -42 -68 -62 -95 -40 -8 7 -22 10 -30 6 -8 -3 -15 0 -15 6 0 6 -8 3
-19 -8 -10 -10 -16 -25 -13 -31 2 -7 -1 -13 -7 -13 -35 0 -51 161 -18 194 9
10 17 21 17 26 0 10 82 51 89 45 2 -3 -7 -36 -20 -75z m-1814 -130 c14 -27 14
-30 -4 -40 -28 -15 -51 -12 -51 5 0 8 5 15 10 15 6 0 10 5 10 11 0 5 -4 7 -10
4 -11 -7 -14 18 -3 28 14 15 33 6 48 -23z m-157 -427 c42 -4 52 -8 48 -20 -3
-8 -3 -33 1 -56 5 -34 8 -38 15 -22 6 15 7 12 3 -10 -2 -16 2 -61 9 -100 8
-38 13 -71 11 -73 -9 -9 -131 -19 -139 -11 -9 10 -76 301 -71 309 3 5 20 4 38
-2 17 -6 56 -13 85 -15z m1282 -378 c63 -9 122 -23 131 -31 8 -8 26 -14 39
-14 23 0 249 -49 262 -56 8 -5 -11 -64 -21 -64 -3 0 -22 5 -41 10 -19 6 -66
15 -105 21 -38 5 -81 11 -95 14 -14 2 -43 6 -65 10 -23 3 -50 7 -60 9 -152 28
-674 21 -990 -14 -49 -6 -133 -12 -186 -15 -53 -2 -108 -9 -123 -15 -15 -5
-38 -10 -52 -10 -19 0 -24 5 -24 24 0 14 -5 28 -11 32 -6 3 -7 10 -2 15 13 13
290 65 438 83 72 9 144 18 160 20 17 2 165 3 330 1 218 -2 331 -7 415 -20z
m-57 -116 c141 -12 379 -51 453 -74 72 -21 104 -49 104 -89 0 -41 -21 -60 -93
-85 -58 -20 -176 -40 -127 -21 22 8 21 9 -10 5 -79 -10 -378 -26 -568 -30
-201 -4 -203 -4 -212 18 l-9 22 0 -22 c-1 -17 -7 -23 -24 -23 -13 0 -28 5 -34
11 -7 7 -19 8 -30 4 -46 -20 -113 -14 -113 11 0 17 12 18 27 3 6 -6 17 -9 25
-7 8 3 1 10 -17 19 -17 9 -29 22 -29 32 1 10 -5 17 -17 17 -15 0 -17 -4 -11
-22 5 -13 7 -31 4 -40 -3 -18 -12 -20 -99 -23 -24 -1 -46 -4 -50 -8 -3 -4 -18
-6 -32 -6 -25 1 -25 2 4 8 17 4 -20 7 -85 7 -126 1 -273 27 -354 62 -44 20
-46 23 -46 61 0 31 6 44 26 60 57 45 287 90 579 114 103 9 630 6 738 -4z"/>
<path d="M1468 503 c18 -2 45 -2 60 0 15 2 0 4 -33 4 -33 0 -45 -2 -27 -4z"/>
<path d="M1678 493 c17 -2 47 -2 65 0 17 2 3 4 -33 4 -36 0 -50 -2 -32 -4z"/>
<path d="M1648 344 c-2 -2 -64 -4 -138 -5 -160 -2 -401 -22 -380 -31 8 -4 -3
-5 -25 -2 -66 9 -318 -25 -453 -61 -66 -17 -111 -65 -62 -65 11 0 20 6 20 14
0 8 5 18 12 22 8 5 9 2 5 -9 -16 -42 134 -80 398 -102 80 -7 100 -1 35 10 -19
3 -62 10 -95 16 -155 26 -271 52 -283 63 -11 10 -10 13 3 13 8 0 15 -4 15 -8
0 -4 8 -6 17 -5 10 2 33 -1 53 -5 19 -5 107 -11 195 -13 126 -4 143 -3 80 4
-191 21 -345 44 -345 52 0 10 -2 11 125 -7 289 -41 695 -55 983 -35 158 12
357 35 410 50 19 5 43 5 55 0 12 -5 19 -9 16 -9 -4 -1 -31 -6 -60 -12 -82 -15
-277 -39 -328 -39 -24 0 -41 -3 -38 -7 7 -6 190 -5 225 2 9 1 49 6 87 10 39 4
80 12 93 16 13 5 30 5 39 1 12 -7 6 -12 -23 -24 -22 -9 -59 -19 -84 -24 -25
-4 -47 -8 -50 -9 -3 -1 -25 -5 -50 -9 -25 -5 -52 -12 -60 -16 -18 -11 45 -4
159 16 145 26 184 54 124 89 -16 9 -19 13 -8 10 11 -4 36 -9 55 -13 32 -5 34
-4 21 11 -9 11 -22 15 -40 11 -21 -4 -23 -3 -11 5 12 9 9 10 -14 5 -22 -5 -27
-4 -21 6 6 10 3 12 -13 8 -12 -4 -20 -2 -17 2 7 12 -56 24 -122 24 -32 0 -47
4 -40 9 7 5 2 6 -12 2 -32 -10 -143 5 -116 15 13 5 -5 9 -55 14 -99 8 -278 14
-282 10z m287 -59 c42 -3 44 -2 15 4 -35 8 -35 8 -5 9 46 1 245 -36 208 -38
-35 -3 -40 -4 -63 -13 -18 -7 -163 -27 -240 -32 -77 -6 -654 -6 -715 0 -27 3
-77 7 -110 10 -91 9 -127 17 -118 26 8 8 206 32 353 43 62 4 598 -2 675 -9z
m-1010 -10 c-38 -7 -83 -13 -100 -13 -40 1 90 25 135 26 22 0 8 -5 -35 -13z"/>
<path d="M2370 196 c0 -8 -12 -24 -26 -35 -33 -26 -28 -26 30 0 40 17 44 22
32 35 -19 18 -36 18 -36 0z"/>
<path d="M1295 161 c3 -5 1 -12 -4 -15 -5 -4 -12 -2 -16 4 -8 12 -25 13 -25 1
0 -5 11 -12 25 -15 14 -4 25 -14 25 -24 1 -13 4 -11 15 8 20 35 18 50 -6 50
-11 0 -18 -4 -14 -9z"/>
<path d="M1370 158 c1 -7 7 -24 15 -38 l15 -25 -2 34 c-3 32 -28 59 -28 29z"/>
<path d="M1628 163 c-27 -7 -25 -63 2 -63 16 0 20 7 20 35 0 19 -1 34 -2 34
-2 -1 -11 -3 -20 -6z"/>
<path d="M1730 160 c0 -5 -12 -11 -27 -11 l-28 -1 30 -7 c17 -4 33 -2 37 4 11
14 10 25 -2 25 -5 0 -10 -4 -10 -10z"/>
<path d="M704 1270 c0 -80 2 -112 3 -72 2 39 2 105 0 145 -1 39 -3 7 -3 -73z"/>
<path d="M2252 1290 c-1 -128 15 -256 40 -307 9 -19 22 -29 41 -31 23 -3 39 7
84 52 31 31 53 59 50 62 -3 4 -28 -18 -56 -47 -55 -60 -74 -60 -43 0 12 22 17
43 13 46 -11 6 -28 -14 -32 -39 -6 -27 -37 -45 -48 -27 -17 27 -32 128 -40
271 l-8 145 -1 -125z"/>
<path d="M420 1306 c0 -3 13 -19 30 -37 18 -20 33 -52 40 -83 6 -28 17 -62 25
-76 13 -23 14 -23 16 -5 4 50 -31 136 -74 183 -19 20 -37 29 -37 18z"/>
<path d="M2477 1257 c-28 -43 -48 -100 -38 -110 11 -11 18 0 26 42 3 18 13 44
22 57 8 14 13 27 11 30 -3 2 -12 -6 -21 -19z"/>
<path d="M1553 1253 c-13 -2 -23 -11 -23 -19 0 -8 5 -12 10 -9 6 4 17 1 25 -5
13 -10 15 -8 15 14 0 14 -1 25 -2 25 -2 -1 -13 -4 -25 -6z"/>
<path d="M2501 1184 c-48 -108 -36 -143 16 -45 27 51 29 62 18 77 -11 16 -15
13 -34 -32z"/>
<path d="M2363 1144 c-3 -8 -1 -20 6 -27 8 -8 11 -6 11 8 0 18 0 18 13 0 9
-11 19 -15 27 -10 10 6 7 12 -11 26 -30 23 -38 23 -46 3z"/>
<path d="M2555 1110 c-15 -30 -15 -30 12 -30 17 0 33 8 40 19 10 16 8 20 -13
29 -21 10 -25 8 -39 -18z"/>
<path d="M593 1094 c-10 -35 -9 -42 14 -82 14 -23 23 -45 20 -48 -8 -9 -78 51
-107 91 -24 33 -40 44 -40 27 0 -18 129 -132 149 -132 11 0 27 10 35 22 18 25
21 42 6 33 -5 -3 -17 9 -26 27 -9 18 -20 35 -24 38 -5 3 -10 18 -12 33 -3 28
-3 28 -15 -9z"/>
<path d="M697 1110 c-3 -8 -8 -31 -10 -50 l-6 -35 15 30 c14 30 14 30 8 -15
-7 -50 -25 -90 -49 -110 -20 -16 -63 2 -121 51 l-39 33 30 -33 c31 -34 93 -71
119 -71 41 0 88 129 68 186 -7 20 -11 24 -15 14z"/>
<path d="M2423 1096 c-13 -6 -23 -16 -23 -22 0 -16 40 -5 47 13 7 19 2 21 -24
9z"/>
<path d="M2241 1064 c-1 -29 29 -115 47 -136 20 -24 47 -23 88 2 34 22 120
117 112 125 -3 3 -16 -10 -29 -29 -28 -39 -91 -92 -121 -102 -30 -9 -57 24
-78 97 -10 35 -19 55 -19 43z"/>
<path d="M390 1063 c0 -5 22 -64 49 -129 27 -66 57 -145 67 -176 10 -32 20
-56 22 -53 5 4 -56 194 -67 210 -4 6 -18 39 -30 75 -22 63 -41 96 -41 73z"/>
<path d="M2481 1008 c-49 -66 -120 -118 -161 -118 -36 0 -58 27 -80 97 -11 32
-19 51 -19 43 -1 -29 20 -88 44 -124 l24 -36 -19 -77 c-10 -43 -25 -109 -31
-148 -7 -38 -18 -74 -23 -78 -6 -5 4 -5 23 -2 22 5 31 4 27 -3 -3 -6 1 -8 12
-5 9 2 31 -3 47 -11 17 -9 37 -16 45 -16 9 0 21 -5 28 -12 16 -16 19 -11 26
47 4 33 3 43 -3 30 -5 -11 -7 -23 -5 -26 2 -4 -4 -13 -13 -20 -15 -12 -16 -12
-10 5 7 16 5 17 -9 6 -22 -19 -33 2 -24 48 5 20 11 53 14 72 6 35 6 35 -8 -5
-8 -22 -15 -49 -15 -61 -1 -32 -19 -42 -58 -34 -19 5 -37 11 -41 14 -7 8 23
179 41 232 7 21 18 38 25 37 6 -2 28 6 48 18 51 28 68 20 49 -25 -8 -20 -15
-41 -14 -48 0 -7 5 -2 11 12 71 169 104 224 138 226 17 1 17 -1 0 -50 -10 -28
-25 -68 -35 -90 -9 -21 -15 -40 -13 -42 3 -2 23 40 45 94 23 53 40 97 40 98
-1 1 -15 4 -32 6 -27 5 -34 0 -74 -54z"/>
<path d="M2495 923 c-5 -10 -9 -22 -11 -28 -1 -5 -8 -23 -15 -40 -14 -36 -13
-31 -39 -125 -11 -41 -19 -79 -17 -84 2 -5 12 22 22 60 10 38 31 104 47 148
16 43 27 80 25 83 -3 2 -8 -4 -12 -14z"/>
<path d="M2461 755 c-12 -37 -21 -72 -20 -79 0 -6 11 23 24 64 13 41 22 76 20
78 -2 2 -13 -26 -24 -63z"/>
<path d="M1170 600 c-221 -21 -481 -75 -590 -123 -32 -14 -33 -15 -10 -16 14
-1 77 12 140 28 124 31 306 63 465 82 150 18 513 15 680 -5 217 -27 483 -83
543 -115 13 -7 23 -7 27 -1 17 28 -266 110 -475 137 -136 17 -640 26 -780 13z"/>
</g>
</svg>
